<svg xmlns="http://www.w3.org/2000/svg" viewBox="0 0 512 512">
  <g stroke-width="2" fill="none" stroke="#a9b3ff">
    <path
      vector-effect="non-scaling-stroke"
      d="M128.12 148.34c-7.45 13.78 7.31 12.25 14.58 10.22 9.02-2.53 19.06-8.64 27.59-12.79q43.08-21 90.94-15.14c24.08 2.95 46.65 15.11 53.57 39.33q2.31 8.1 2.47 19.78c.43 32.96-10.02 66.34-45.61 75.87-11.35 3.04-22.96 4.45-34.36 7.25q-5.82 1.42-6.8 6.29c-2.69 13.47 16.54 18.64 26.25 19.82 26.13 3.18 51.27.6 74.06-12.82 43.96-25.87 68.06-84.1 49.34-132.65-15.33-39.78-57.21-59.67-97.46-64.36-39.84-4.65-76.28.21-111.55 19.34-18.57 10.06-32.72 20.81-43.02 39.86"
    />
    <path
      vector-effect="non-scaling-stroke"
      d="M224.56 152.44c-6.48-4.2-19.6 7.54-23.58 12.05-14.09 15.96-23.52 36.51-30.89 56.3q-16.9 45.31-27.03 92.62c-6.5 30.35-10.2 62.81-7 94 1.02 9.93 2.78 17.15 13.91 17.36 14.47.26 41.12-1.49 48.51-17.02q1.51-3.19 1.86-9.28 2.08-36.92 3.98-73.86c.35-6.86.8-14.77 1.89-20.12q6.98-34.38 13.8-68.79c5.07-25.59 8.26-45.5 7.98-69.93-.04-3.2-.55-11.47-3.43-13.33"
    />
  </g>
  <path
    fill="#5367fe"
    d="M49.57 0h413.24c27.81 2.42 47.4 21.65 49.19 49.81v412.74c-1.89 27.67-22.18 48.06-49.82 49.45H49.94C22.17 510.34 1.71 490.32 0 462.68V49.2C1.85 21.84 22.17 1.56 49.57 0Zm78.55 148.34c-7.45 13.78 7.31 12.25 14.58 10.22 9.02-2.53 19.06-8.64 27.59-12.79q43.08-21 90.94-15.14c24.08 2.95 46.65 15.11 53.57 39.33q2.31 8.1 2.47 19.78c.43 32.96-10.02 66.34-45.61 75.87-11.35 3.04-22.96 4.45-34.36 7.25q-5.82 1.42-6.8 6.29c-2.69 13.47 16.54 18.64 26.25 19.82 26.13 3.18 51.27.6 74.06-12.82 43.96-25.87 68.06-84.1 49.34-132.65-15.33-39.78-57.21-59.67-97.46-64.36-39.84-4.65-76.28.21-111.55 19.34-18.57 10.06-32.72 20.81-43.02 39.86Zm96.44 4.1c-6.48-4.2-19.6 7.54-23.58 12.05-14.09 15.96-23.52 36.51-30.89 56.3q-16.9 45.31-27.03 92.62c-6.5 30.35-10.2 62.81-7 94 1.02 9.93 2.78 17.15 13.91 17.36 14.47.26 41.12-1.49 48.51-17.02q1.51-3.19 1.86-9.28 2.08-36.92 3.98-73.86c.35-6.86.8-14.77 1.89-20.12q6.98-34.38 13.8-68.79c5.07-25.59 8.26-45.5 7.98-69.93-.04-3.2-.55-11.47-3.43-13.33Z"
  />
  <path
    fill="#fff"
    d="M142.7 158.56c-7.27 2.03-22.03 3.56-14.58-10.22 10.3-19.05 24.45-29.8 43.02-39.86 35.27-19.13 71.71-23.99 111.55-19.34 40.25 4.69 82.13 24.58 97.46 64.36 18.72 48.55-5.38 106.78-49.34 132.65-22.79 13.42-47.93 16-74.06 12.82-9.71-1.18-28.94-6.35-26.25-19.82q.98-4.87 6.8-6.29c11.4-2.8 23.01-4.21 34.36-7.25 35.59-9.53 46.04-42.91 45.61-75.87q-.16-11.68-2.47-19.78c-6.92-24.22-29.49-36.38-53.57-39.33q-47.86-5.86-90.94 15.14c-8.53 4.15-18.57 10.26-27.59 12.79Z"
  />
  <path
    fill="#fff"
    d="M224.56 152.44c2.88 1.86 3.39 10.13 3.43 13.33.28 24.43-2.91 44.34-7.98 69.93q-6.82 34.41-13.8 68.79c-1.09 5.35-1.54 13.26-1.89 20.12q-1.9 36.94-3.98 73.86-.35 6.09-1.86 9.28c-7.39 15.53-34.04 17.28-48.51 17.02-11.13-.21-12.89-7.43-13.91-17.36-3.2-31.19.5-63.65 7-94q10.13-47.31 27.03-92.62c7.37-19.79 16.8-40.34 30.89-56.3 3.98-4.51 17.1-16.25 23.58-12.05Z"
  />
</svg>
