<svg width="1035" height="314" viewBox="0 0 1035 314" xmlns="http://www.w3.org/2000/svg">
  <path
    d="M.14 314c3.866-14.11 7.136-25.248 9.76-33.853 2.623-8.606 7.146-22.172 10.049-30.147 2.903-7.975 7.519-19 10.256-24.5 2.738-5.5 7.524-13.554 10.636-17.898 3.113-4.344 11.253-14.469 18.091-22.5 6.838-8.031 19.663-22.408 28.5-31.948s20.234-21.915 25.325-27.5c5.092-5.585 13.005-14.429 17.585-19.654 4.579-5.225 14.36-17.375 21.734-27 7.374-9.625 17.748-22.678 23.053-29.006 5.305-6.329 14.784-16.454 21.065-22.5 6.281-6.047 13.894-12.458 16.917-14.247 3.023-1.789 9.297-4.325 13.943-5.636 4.645-1.311 12.711-3.388 17.923-4.615 6.554-1.544 11.225-2.074 15.143-1.719 3.587.325 9.255 2.088 15.452 4.806 5.383 2.361 14.994 7.414 21.358 11.23 6.363 3.815 14.72 9.226 18.57 12.024 3.85 2.798 9.418 7.119 12.373 9.602 2.964 2.49 6.327 6.483 7.5 8.906 1.689 3.486 2.114 6.169 2.062 13.023-.054 7.059-.581 9.908-2.893 15.632-1.556 3.85-3.704 8.252-4.775 9.781-1.071 1.53-4.564 4.102-7.762 5.716-5.173 2.612-5.999 3.462-7.497 7.719-.926 2.631-2.279 6.178-3.007 7.883-1.226 2.869-1.868 3.186-8.683 4.285-5.421.875-9.801.911-16.625.138-5.096-.577-12.061-1.997-15.479-3.154-3.418-1.158-8.914-3.374-12.214-4.926-3.3-1.551-8.319-4.555-11.154-6.675-2.835-2.12-8.131-6.467-11.768-9.661-3.637-3.193-7.168-5.588-7.846-5.322-.677.266-5.488 8.749-10.691 18.85-5.202 10.101-12.242 24.441-15.645 31.866-3.402 7.425-7.792 17.824-9.754 23.109-1.963 5.284-4.719 13.578-6.125 18.429-1.535 5.298-2.946 13.64-3.534 20.891-.538 6.639-1.484 25.666-2.103 42.282-.618 16.616-.844 30.941-.501 31.834.527 1.374 1.353 1.092 5.372-1.835 2.612-1.903 7.899-4.812 11.749-6.464 3.85-1.652 9.938-3.962 13.528-5.133 3.591-1.171 10.341-2.799 15-3.619 4.66-.82 13.351-1.492 19.315-1.493 6.922-.001 14.335.718 20.5 1.987 5.311 1.094 13.926 3.586 19.144 5.538 5.218 1.952 13.651 5.774 18.741 8.493 5.089 2.72 13.807 7.99 19.373 11.713 5.566 3.722 10.756 7.218 11.534 7.768 1.014.718 2.607.32 5.639-1.409 2.324-1.324 7.418-4.127 11.32-6.228s11.102-5.357 16-7.236c4.898-1.879 12.731-4.346 17.406-5.482 4.675-1.136 13.675-2.528 20-3.092 7.718-.69 14.367-.7 20.219-.033 4.796.547 11.812 1.645 15.593 2.44 3.781.796 10.489 2.766 14.907 4.378 4.418 1.613 11.65 4.814 16.07 7.113 4.421 2.3 11.41 6.514 15.532 9.365s10.799 7.911 14.837 11.244c4.038 3.332 9.296 8.395 11.685 11.25l4.343 5.19H.14Zm517.674 0c6.62-7.907 11.724-12.883 15.614-16.16 3.89-3.276 10.897-8.573 15.572-11.771 4.675-3.198 12.1-7.62 16.5-9.826 4.4-2.207 11.825-5.354 16.5-6.994 4.675-1.64 12.775-3.761 18-4.714 5.844-1.066 14.195-1.71 21.698-1.674 6.709.033 16.275.767 21.259 1.631 4.983.865 12.994 2.863 17.801 4.44 4.808 1.577 12.311 4.499 16.673 6.493 4.362 1.994 10.212 5.039 13 6.765 2.788 1.727 6.268 3.599 7.734 4.162 2.347.9 3.303.54 8-3.016 2.934-2.222 9.414-6.533 14.4-9.58 4.986-3.047 11.736-6.879 15-8.514 3.264-1.635 10.047-4.59 15.072-6.566 5.026-1.976 13.647-4.511 19.157-5.634 6.454-1.315 13.879-2.042 20.863-2.041 5.964.001 14.657.673 19.318 1.493 4.661.821 12.086 2.683 16.5 4.14 4.414 1.456 11.173 4.221 15.02 6.143 3.847 1.922 8.455 4.608 10.239 5.969 2.895 2.208 3.314 2.293 3.891.788.356-.927.139-15.265-.483-31.86-.621-16.596-1.574-35.606-2.116-42.245-.58-7.091-2.014-15.615-3.477-20.663-1.369-4.725-4.849-14.818-7.733-22.429-2.883-7.61-11.509-26.363-19.169-41.672-7.659-15.309-14.537-28.069-15.283-28.356-.758-.29-4.469 2.238-8.396 5.719-3.871 3.432-8.781 7.503-10.911 9.045-2.129 1.543-6.276 4.147-9.214 5.786-2.939 1.64-8.836 4.141-13.105 5.558-4.269 1.417-12.088 3.059-17.376 3.649-7.122.794-11.422.767-16.584-.103-6.445-1.087-7.062-1.412-8.211-4.319a435.243 435.243 0 0 1-3.001-7.928c-1.552-4.226-2.435-5.126-7.571-7.719-3.198-1.614-6.694-4.186-7.768-5.716-1.075-1.529-2.895-4.929-4.045-7.555-1.15-2.626-2.623-7.478-3.273-10.783-.65-3.304-.934-8.411-.631-11.348.303-2.937 1.475-7.151 2.605-9.365 1.129-2.214 5.105-6.571 8.835-9.682 3.73-3.11 11.732-8.941 17.782-12.956 6.05-4.015 14.825-9.365 19.5-11.888 4.675-2.522 11.859-6.014 15.964-7.759 4.104-1.746 9.965-3.4 13.023-3.677 3.797-.345 8.563.203 15.036 1.728 5.212 1.227 13.278 3.304 17.923 4.615 4.646 1.311 10.915 3.847 13.931 5.636 3.016 1.789 10.196 7.753 15.956 13.253 5.759 5.5 15.242 15.625 21.071 22.5 5.83 6.875 15.742 19.25 22.026 27.5 6.284 8.25 14.428 18.6 18.098 23 3.669 4.4 11.995 13.85 18.502 21 6.506 7.15 17.07 18.625 23.475 25.5 6.404 6.875 15.454 16.775 20.11 22a1759.867 1759.867 0 0 1 15.794 18c4.03 4.675 10.033 12.038 13.339 16.362 3.307 4.323 7.702 10.643 9.768 14.044 2.066 3.4 5.789 10.888 8.274 16.638 2.485 5.751 6.563 16.306 9.062 23.456 2.5 7.15 6.322 18.85 8.494 26 2.172 7.15 5.089 17.163 6.482 22.25l2.532 9.25H517.814Z"
    fill="#f2f6ff"
  />
</svg>
